<?xml version="1.0" encoding="utf-8"?>
<!-- Generator: Adobe Illustrator 26.0.0, SVG Export Plug-In . SVG Version: 6.00 Build 0)  -->
<svg version="1.1" id="Layer_1" xmlns="http://www.w3.org/2000/svg" xmlns:xlink="http://www.w3.org/1999/xlink" x="0px" y="0px"
	 viewBox="0 0 967.97 566.93" style="enable-background:new 0 0 967.97 566.93;" xml:space="preserve">
<style type="text/css">
	.st0{fill:#FFFFFF;}
	.st1{font-family:'Tahoma';}
	.st2{font-size:49.6747px;}
</style>
<g>
	<path class="st0" d="M555.09,306.65c0,6.68-1.35,12.57-4.03,17.69c-2.69,5.12-6.3,9.33-10.85,12.64
		c-5.38,3.97-11.13,6.79-17.27,8.44c-6.14,1.65-14.07,2.48-23.8,2.48h-40.98V213.6h37.9c10.17,0,17.8,0.31,22.88,0.95
		c5.08,0.63,9.96,2.12,14.63,4.46c5.12,2.58,8.86,5.96,11.22,10.14c2.37,4.18,3.55,9.09,3.55,14.73c0,6.31-1.78,11.95-5.33,16.94
		c-3.55,4.99-8.46,8.89-14.73,11.72v0.72c8.52,2.16,15.11,6.12,19.79,11.87C552.75,290.87,555.09,298.05,555.09,306.65
		 M528.57,246.39c0-3.25-0.58-6.06-1.73-8.43c-1.15-2.38-3.01-4.25-5.57-5.64c-3.07-1.62-6.49-2.62-10.27-2.97
		c-3.77-0.36-8.99-0.54-15.64-0.54h-18.23v39.32h21.59c5.95,0,10.33-0.28,13.15-0.86c2.82-0.57,5.72-1.76,8.73-3.56
		c2.88-1.74,4.93-4.03,6.14-6.86C527.96,254.02,528.57,250.54,528.57,246.39 M535.31,307.39c0-5.06-0.77-9.24-2.31-12.52
		c-1.53-3.28-4.64-6.07-9.31-8.36c-3.01-1.5-6.29-2.47-9.84-2.89c-3.55-0.42-8.59-0.63-15.12-0.63h-21.6v49.72h15.46
		c8.32,0,14.88-0.36,19.68-1.09c4.8-0.72,9.02-2.26,12.67-4.61c3.59-2.35,6.21-5.02,7.87-8
		C534.48,316.02,535.31,312.15,535.31,307.39"/>
	<polygon class="st0" points="573.99,347.9 573.99,213.6 663.49,213.6 663.49,229.49 592.97,229.49 592.97,266.29 658.69,266.29 
		658.69,282.18 592.97,282.18 592.97,332.01 663.49,332.01 663.49,347.9 	"/>
	<path class="st0" d="M724.08,350.3c-10.36,0-19.16-1.01-26.42-3.02c-7.26-2.01-14.08-4.49-20.48-7.44V317.5h1.34
		c6.26,5.52,13.36,9.8,21.29,12.83c7.92,3.03,15.57,4.54,22.92,4.54c10.48,0,18.41-2.06,23.78-6.17c5.37-4.11,8.06-9.54,8.06-16.26
		c0-5.35-1.41-9.71-4.22-13.07c-2.81-3.37-7.29-5.86-13.42-7.48c-4.41-1.2-8.44-2.19-12.09-2.97c-3.65-0.78-8.22-1.83-13.72-3.15
		c-4.92-1.2-9.34-2.73-13.24-4.6c-3.9-1.86-7.36-4.3-10.36-7.3c-2.94-2.95-5.23-6.42-6.86-10.42c-1.63-3.99-2.45-8.61-2.45-13.84
		c0-10.88,4.51-20,13.52-27.36c9.01-7.36,20.52-11.04,34.52-11.04c8,0,15.55,0.75,22.68,2.26c7.13,1.51,13.73,3.64,19.8,6.41v21.4
		h-1.44c-4.54-3.92-10.36-7.33-17.45-10.25c-7.09-2.92-14.54-4.38-22.34-4.38c-8.82,0-15.95,1.94-21.38,5.82
		c-5.43,3.87-8.15,8.97-8.15,15.27c0,5.71,1.6,10.24,4.79,13.61c3.19,3.36,7.83,5.83,13.9,7.39c4.03,1.02,8.95,2.18,14.77,3.47
		c5.82,1.29,10.65,2.48,14.49,3.56c9.85,2.83,17.04,7.1,21.58,12.8c4.54,5.71,6.81,12.74,6.81,21.1c0,5.23-1.13,10.4-3.41,15.51
		c-2.27,5.11-5.45,9.44-9.54,12.98c-4.6,3.91-9.8,6.91-15.58,9.01C740.02,349.25,732.77,350.3,724.08,350.3"/>
	<polygon class="st0" points="827.15,347.9 827.15,229.49 779.15,229.49 779.15,213.6 894.13,213.6 894.13,229.49 846.12,229.49 
		846.12,347.9 	"/>
	<text transform="matrix(1 0 0 1 680.7003 400.4605)" class="st0 st1 st2">COIMBRA</text>
	<path class="st0" d="M386.86,348.08l-31.48-18.14H273.2l-31.47,18.14c30.11,52.32,120.14,137.99,217.69,145.4
		C425.43,474.44,371.33,406.03,386.86,348.08"/>
	<path class="st0" d="M319.47,249.78L319.47,249.78l-0.61-1.07L319.47,249.78z M409.08,77.92c0.51,38.97-31.68,120-89.62,135.54
		l0.02,36.33l41.09,71.18l31.45,18.19C422.27,286.91,451.45,166.11,409.08,77.92"/>
	<path class="st0" d="M268.02,320.96L268.02,320.96l-0.61,1.07L268.02,320.96z M309.14,213.46
		c-60.36-0.09-179.58,35.05-234.75,115.84c33.49-19.92,119.77-32.58,162.2,9.86l31.44-18.19l41.1-71.17L309.14,213.46z"/>
	<path class="st0" d="M295.03,300.22c0-10.63,8.62-19.25,19.27-19.25c10.64,0,19.26,8.62,19.26,19.25
		c0,10.67-8.62,19.26-19.26,19.26C303.65,319.49,295.03,310.89,295.03,300.22"/>
</g>
</svg>
